<svg width="24" height="24" viewBox="0 0 24 24" fill="none" xmlns="http://www.w3.org/2000/svg">
<path d="M7.65146 1.5746C6.53397 1.6271 5.77121 1.8056 5.10447 2.06735C4.41446 2.3366 3.82946 2.69735 3.24672 3.2816C2.66472 3.86585 2.30622 4.4516 2.03922 5.14235C1.78047 5.8106 1.60572 6.5741 1.55622 7.69235C1.50672 8.80985 1.49622 9.16985 1.50147 12.0206C1.50672 14.8713 1.51947 15.2291 1.57347 16.3496C1.62672 17.4664 1.80447 18.2291 2.06622 18.8966C2.33547 19.5866 2.69622 20.1716 3.28047 20.7543C3.86472 21.3363 4.44971 21.6941 5.14271 21.9618C5.81021 22.2199 6.57446 22.3961 7.69197 22.4448C8.80946 22.4936 9.16947 22.5049 12.0202 22.4996C14.871 22.4943 15.2295 22.4816 16.35 22.4284C17.4705 22.3751 18.2287 22.1966 18.8962 21.9356C19.5862 21.6656 20.172 21.3056 20.754 20.7206C21.336 20.1356 21.6945 19.5499 21.9607 18.8583C22.2195 18.1908 22.395 17.4266 22.4437 16.3099C22.4925 15.1894 22.5045 14.8316 22.4985 11.9801C22.4925 9.1286 22.4805 8.7716 22.4272 7.65185C22.374 6.5321 22.1962 5.7716 21.9345 5.1041C21.6645 4.4141 21.3045 3.8291 20.7202 3.24635C20.136 2.6636 19.5495 2.30585 18.858 2.0396C18.1897 1.78085 17.4262 1.6046 16.3087 1.5566C15.1912 1.5086 14.8312 1.49585 11.9797 1.5011C9.12821 1.50635 8.77121 1.5191 7.65146 1.5731M7.77447 20.5549C6.75072 20.5106 6.19496 20.3404 5.82446 20.1979C5.33396 20.0089 4.98446 19.7801 4.61546 19.4149C4.24646 19.0496 4.01922 18.6986 3.82797 18.2089C3.68396 17.8384 3.51072 17.2833 3.46272 16.2596C3.41097 15.1533 3.39972 14.8211 3.39372 12.0176C3.38772 9.2141 3.39822 8.8826 3.44697 7.7756C3.49047 6.7526 3.66146 6.1961 3.80397 5.8256C3.99296 5.33435 4.22096 4.9856 4.58697 4.6166C4.95297 4.2476 5.30321 4.02035 5.79296 3.8291C6.16271 3.68435 6.71846 3.5126 7.74146 3.46385C8.84846 3.41135 9.18072 3.40085 11.9835 3.39485C14.7862 3.38885 15.1192 3.39935 16.227 3.4481C17.25 3.49235 17.8065 3.66185 18.1762 3.8051C18.6667 3.9941 19.0162 4.22135 19.3852 4.5881C19.7542 4.95485 19.9815 5.3036 20.1735 5.79485C20.3182 6.16385 20.49 6.71885 20.538 7.7426C20.5905 8.8496 20.6025 9.18185 20.6077 11.9846C20.613 14.7873 20.6032 15.1204 20.5545 16.2266C20.5095 17.2504 20.34 17.8061 20.1975 18.1774C20.0085 18.6679 19.7805 19.0173 19.4137 19.3864C19.047 19.7554 18.6975 19.9826 18.2077 20.1738C17.838 20.3179 17.2822 20.4904 16.26 20.5391C15.153 20.5909 14.8207 20.6021 12.0172 20.6081C9.21372 20.6141 8.88147 20.6028 7.77447 20.5549ZM16.3342 6.38885C16.3357 7.08485 16.9005 7.6481 17.5965 7.6466C18.2925 7.6451 18.8557 7.08035 18.8542 6.38435C18.8527 5.68835 18.288 5.1251 17.592 5.1266C16.896 5.1281 16.3335 5.69285 16.3342 6.38885ZM6.60896 12.0109C6.61496 14.9884 9.03297 17.3974 12.0105 17.3913C14.988 17.3854 17.3977 14.9674 17.3925 11.9899C17.3865 9.01235 14.9677 6.6026 11.9902 6.6086C9.01272 6.6146 6.60296 9.03335 6.60896 12.0109ZM8.50121 12.0071C8.49747 10.0743 10.0612 8.50385 11.9947 8.5001C13.9275 8.49635 15.498 10.0601 15.5017 11.9936C15.5055 13.9263 13.9417 15.4969 12.0082 15.5006C10.0755 15.5044 8.50497 13.9413 8.50121 12.0086" fill="#F8F8F8"/>
</svg>
