<svg width="24" height="24" viewBox="0 0 24 24" fill="none" xmlns="http://www.w3.org/2000/svg">
<g clip-path="url(#clip0_956_905)">
<path d="M23.4982 6.18762C23.2222 5.14812 22.4093 4.32987 21.3765 4.05162C19.5045 3.54687 12 3.54688 12 3.54688C12 3.54688 4.49475 3.54687 2.6235 4.05162C1.59075 4.32912 0.77775 5.14812 0.50175 6.18762C0 8.07162 0 12.0016 0 12.0016C0 12.0016 0 15.9324 0.50175 17.8156C0.77775 18.8551 1.59075 19.6734 2.6235 19.9509C4.4955 20.4556 12 20.4556 12 20.4556C12 20.4556 19.5053 20.4556 21.3765 19.9509C22.4093 19.6734 23.2222 18.8544 23.4982 17.8156C24 15.9316 24 12.0016 24 12.0016C24 12.0016 24 8.07162 23.4982 6.18762ZM9.54525 15.5701V8.43312L15.8182 12.0016L9.54525 15.5701Z" fill="#F8F8F8"/>
</g>
<defs>
<clipPath id="clip0_956_905">
<rect width="24" height="24" fill="white"/>
</clipPath>
</defs>
</svg>
